<?xml version="1.0" standalone="no"?>
<svg xmlns="http://www.w3.org/2000/svg" version="1.1" width="602" height="602">
	<!-- Created with https://api.qrserver.com (QR Code API, see goQR.me/api for information) -->
	<title>QR Code</title>
	<desc>webcal://n8n-hook.mtgibbs.dev/webhook/cal-ronin-dd5bef4b-4b18-4965-96af-c0b26117ee4a</desc>
	<rect style="fill:rgb(255, 255, 255);fill-opacity:1" x="0" y="0" width="602" height="602" />
	<g id="elements">
		<path style="fill:rgb(0, 0, 0)" d="M 14,14 l 14,0 0,14 -14,0 z M 28,14 l 14,0 0,14 -14,0 z M 42,14 l 14,0 0,14 -14,0 z M 56,14 l 14,0 0,14 -14,0 z M 70,14 l 14,0 0,14 -14,0 z M 84,14 l 14,0 0,14 -14,0 z M 98,14 l 14,0 0,14 -14,0 z M 140,14 l 14,0 0,14 -14,0 z M 154,14 l 14,0 0,14 -14,0 z M 182,14 l 14,0 0,14 -14,0 z M 210,14 l 14,0 0,14 -14,0 z M 238,14 l 14,0 0,14 -14,0 z M 252,14 l 14,0 0,14 -14,0 z M 266,14 l 14,0 0,14 -14,0 z M 280,14 l 14,0 0,14 -14,0 z M 308,14 l 14,0 0,14 -14,0 z M 336,14 l 14,0 0,14 -14,0 z M 364,14 l 14,0 0,14 -14,0 z M 392,14 l 14,0 0,14 -14,0 z M 406,14 l 14,0 0,14 -14,0 z M 434,14 l 14,0 0,14 -14,0 z M 462,14 l 14,0 0,14 -14,0 z M 490,14 l 14,0 0,14 -14,0 z M 504,14 l 14,0 0,14 -14,0 z M 518,14 l 14,0 0,14 -14,0 z M 532,14 l 14,0 0,14 -14,0 z M 546,14 l 14,0 0,14 -14,0 z M 560,14 l 14,0 0,14 -14,0 z M 574,14 l 14,0 0,14 -14,0 z M 14,28 l 14,0 0,14 -14,0 z M 98,28 l 14,0 0,14 -14,0 z M 140,28 l 14,0 0,14 -14,0 z M 168,28 l 14,0 0,14 -14,0 z M 210,28 l 14,0 0,14 -14,0 z M 224,28 l 14,0 0,14 -14,0 z M 252,28 l 14,0 0,14 -14,0 z M 280,28 l 14,0 0,14 -14,0 z M 308,28 l 14,0 0,14 -14,0 z M 364,28 l 14,0 0,14 -14,0 z M 378,28 l 14,0 0,14 -14,0 z M 434,28 l 14,0 0,14 -14,0 z M 490,28 l 14,0 0,14 -14,0 z M 574,28 l 14,0 0,14 -14,0 z M 14,42 l 14,0 0,14 -14,0 z M 42,42 l 14,0 0,14 -14,0 z M 56,42 l 14,0 0,14 -14,0 z M 70,42 l 14,0 0,14 -14,0 z M 98,42 l 14,0 0,14 -14,0 z M 126,42 l 14,0 0,14 -14,0 z M 140,42 l 14,0 0,14 -14,0 z M 154,42 l 14,0 0,14 -14,0 z M 168,42 l 14,0 0,14 -14,0 z M 182,42 l 14,0 0,14 -14,0 z M 210,42 l 14,0 0,14 -14,0 z M 238,42 l 14,0 0,14 -14,0 z M 252,42 l 14,0 0,14 -14,0 z M 266,42 l 14,0 0,14 -14,0 z M 308,42 l 14,0 0,14 -14,0 z M 322,42 l 14,0 0,14 -14,0 z M 350,42 l 14,0 0,14 -14,0 z M 364,42 l 14,0 0,14 -14,0 z M 392,42 l 14,0 0,14 -14,0 z M 490,42 l 14,0 0,14 -14,0 z M 518,42 l 14,0 0,14 -14,0 z M 532,42 l 14,0 0,14 -14,0 z M 546,42 l 14,0 0,14 -14,0 z M 574,42 l 14,0 0,14 -14,0 z M 14,56 l 14,0 0,14 -14,0 z M 42,56 l 14,0 0,14 -14,0 z M 56,56 l 14,0 0,14 -14,0 z M 70,56 l 14,0 0,14 -14,0 z M 98,56 l 14,0 0,14 -14,0 z M 126,56 l 14,0 0,14 -14,0 z M 154,56 l 14,0 0,14 -14,0 z M 168,56 l 14,0 0,14 -14,0 z M 210,56 l 14,0 0,14 -14,0 z M 224,56 l 14,0 0,14 -14,0 z M 238,56 l 14,0 0,14 -14,0 z M 294,56 l 14,0 0,14 -14,0 z M 308,56 l 14,0 0,14 -14,0 z M 350,56 l 14,0 0,14 -14,0 z M 378,56 l 14,0 0,14 -14,0 z M 434,56 l 14,0 0,14 -14,0 z M 490,56 l 14,0 0,14 -14,0 z M 518,56 l 14,0 0,14 -14,0 z M 532,56 l 14,0 0,14 -14,0 z M 546,56 l 14,0 0,14 -14,0 z M 574,56 l 14,0 0,14 -14,0 z M 14,70 l 14,0 0,14 -14,0 z M 42,70 l 14,0 0,14 -14,0 z M 56,70 l 14,0 0,14 -14,0 z M 70,70 l 14,0 0,14 -14,0 z M 98,70 l 14,0 0,14 -14,0 z M 126,70 l 14,0 0,14 -14,0 z M 224,70 l 14,0 0,14 -14,0 z M 266,70 l 14,0 0,14 -14,0 z M 280,70 l 14,0 0,14 -14,0 z M 322,70 l 14,0 0,14 -14,0 z M 336,70 l 14,0 0,14 -14,0 z M 364,70 l 14,0 0,14 -14,0 z M 406,70 l 14,0 0,14 -14,0 z M 420,70 l 14,0 0,14 -14,0 z M 448,70 l 14,0 0,14 -14,0 z M 462,70 l 14,0 0,14 -14,0 z M 490,70 l 14,0 0,14 -14,0 z M 518,70 l 14,0 0,14 -14,0 z M 532,70 l 14,0 0,14 -14,0 z M 546,70 l 14,0 0,14 -14,0 z M 574,70 l 14,0 0,14 -14,0 z M 14,84 l 14,0 0,14 -14,0 z M 98,84 l 14,0 0,14 -14,0 z M 126,84 l 14,0 0,14 -14,0 z M 168,84 l 14,0 0,14 -14,0 z M 182,84 l 14,0 0,14 -14,0 z M 196,84 l 14,0 0,14 -14,0 z M 252,84 l 14,0 0,14 -14,0 z M 266,84 l 14,0 0,14 -14,0 z M 308,84 l 14,0 0,14 -14,0 z M 322,84 l 14,0 0,14 -14,0 z M 350,84 l 14,0 0,14 -14,0 z M 392,84 l 14,0 0,14 -14,0 z M 406,84 l 14,0 0,14 -14,0 z M 420,84 l 14,0 0,14 -14,0 z M 462,84 l 14,0 0,14 -14,0 z M 490,84 l 14,0 0,14 -14,0 z M 574,84 l 14,0 0,14 -14,0 z M 14,98 l 14,0 0,14 -14,0 z M 28,98 l 14,0 0,14 -14,0 z M 42,98 l 14,0 0,14 -14,0 z M 56,98 l 14,0 0,14 -14,0 z M 70,98 l 14,0 0,14 -14,0 z M 84,98 l 14,0 0,14 -14,0 z M 98,98 l 14,0 0,14 -14,0 z M 126,98 l 14,0 0,14 -14,0 z M 154,98 l 14,0 0,14 -14,0 z M 182,98 l 14,0 0,14 -14,0 z M 210,98 l 14,0 0,14 -14,0 z M 238,98 l 14,0 0,14 -14,0 z M 266,98 l 14,0 0,14 -14,0 z M 294,98 l 14,0 0,14 -14,0 z M 322,98 l 14,0 0,14 -14,0 z M 350,98 l 14,0 0,14 -14,0 z M 378,98 l 14,0 0,14 -14,0 z M 406,98 l 14,0 0,14 -14,0 z M 434,98 l 14,0 0,14 -14,0 z M 462,98 l 14,0 0,14 -14,0 z M 490,98 l 14,0 0,14 -14,0 z M 504,98 l 14,0 0,14 -14,0 z M 518,98 l 14,0 0,14 -14,0 z M 532,98 l 14,0 0,14 -14,0 z M 546,98 l 14,0 0,14 -14,0 z M 560,98 l 14,0 0,14 -14,0 z M 574,98 l 14,0 0,14 -14,0 z M 126,112 l 14,0 0,14 -14,0 z M 140,112 l 14,0 0,14 -14,0 z M 182,112 l 14,0 0,14 -14,0 z M 196,112 l 14,0 0,14 -14,0 z M 266,112 l 14,0 0,14 -14,0 z M 294,112 l 14,0 0,14 -14,0 z M 308,112 l 14,0 0,14 -14,0 z M 322,112 l 14,0 0,14 -14,0 z M 336,112 l 14,0 0,14 -14,0 z M 392,112 l 14,0 0,14 -14,0 z M 448,112 l 14,0 0,14 -14,0 z M 462,112 l 14,0 0,14 -14,0 z M 14,126 l 14,0 0,14 -14,0 z M 42,126 l 14,0 0,14 -14,0 z M 56,126 l 14,0 0,14 -14,0 z M 70,126 l 14,0 0,14 -14,0 z M 84,126 l 14,0 0,14 -14,0 z M 98,126 l 14,0 0,14 -14,0 z M 140,126 l 14,0 0,14 -14,0 z M 154,126 l 14,0 0,14 -14,0 z M 168,126 l 14,0 0,14 -14,0 z M 210,126 l 14,0 0,14 -14,0 z M 224,126 l 14,0 0,14 -14,0 z M 252,126 l 14,0 0,14 -14,0 z M 322,126 l 14,0 0,14 -14,0 z M 336,126 l 14,0 0,14 -14,0 z M 350,126 l 14,0 0,14 -14,0 z M 364,126 l 14,0 0,14 -14,0 z M 378,126 l 14,0 0,14 -14,0 z M 392,126 l 14,0 0,14 -14,0 z M 420,126 l 14,0 0,14 -14,0 z M 448,126 l 14,0 0,14 -14,0 z M 490,126 l 14,0 0,14 -14,0 z M 504,126 l 14,0 0,14 -14,0 z M 518,126 l 14,0 0,14 -14,0 z M 532,126 l 14,0 0,14 -14,0 z M 546,126 l 14,0 0,14 -14,0 z M 28,140 l 14,0 0,14 -14,0 z M 42,140 l 14,0 0,14 -14,0 z M 56,140 l 14,0 0,14 -14,0 z M 126,140 l 14,0 0,14 -14,0 z M 140,140 l 14,0 0,14 -14,0 z M 168,140 l 14,0 0,14 -14,0 z M 182,140 l 14,0 0,14 -14,0 z M 224,140 l 14,0 0,14 -14,0 z M 238,140 l 14,0 0,14 -14,0 z M 280,140 l 14,0 0,14 -14,0 z M 294,140 l 14,0 0,14 -14,0 z M 322,140 l 14,0 0,14 -14,0 z M 336,140 l 14,0 0,14 -14,0 z M 364,140 l 14,0 0,14 -14,0 z M 406,140 l 14,0 0,14 -14,0 z M 420,140 l 14,0 0,14 -14,0 z M 434,140 l 14,0 0,14 -14,0 z M 448,140 l 14,0 0,14 -14,0 z M 476,140 l 14,0 0,14 -14,0 z M 490,140 l 14,0 0,14 -14,0 z M 504,140 l 14,0 0,14 -14,0 z M 518,140 l 14,0 0,14 -14,0 z M 532,140 l 14,0 0,14 -14,0 z M 560,140 l 14,0 0,14 -14,0 z M 574,140 l 14,0 0,14 -14,0 z M 28,154 l 14,0 0,14 -14,0 z M 56,154 l 14,0 0,14 -14,0 z M 70,154 l 14,0 0,14 -14,0 z M 98,154 l 14,0 0,14 -14,0 z M 140,154 l 14,0 0,14 -14,0 z M 182,154 l 14,0 0,14 -14,0 z M 196,154 l 14,0 0,14 -14,0 z M 224,154 l 14,0 0,14 -14,0 z M 238,154 l 14,0 0,14 -14,0 z M 308,154 l 14,0 0,14 -14,0 z M 350,154 l 14,0 0,14 -14,0 z M 378,154 l 14,0 0,14 -14,0 z M 392,154 l 14,0 0,14 -14,0 z M 406,154 l 14,0 0,14 -14,0 z M 420,154 l 14,0 0,14 -14,0 z M 462,154 l 14,0 0,14 -14,0 z M 476,154 l 14,0 0,14 -14,0 z M 518,154 l 14,0 0,14 -14,0 z M 532,154 l 14,0 0,14 -14,0 z M 546,154 l 14,0 0,14 -14,0 z M 14,168 l 14,0 0,14 -14,0 z M 28,168 l 14,0 0,14 -14,0 z M 42,168 l 14,0 0,14 -14,0 z M 70,168 l 14,0 0,14 -14,0 z M 154,168 l 14,0 0,14 -14,0 z M 168,168 l 14,0 0,14 -14,0 z M 196,168 l 14,0 0,14 -14,0 z M 210,168 l 14,0 0,14 -14,0 z M 280,168 l 14,0 0,14 -14,0 z M 308,168 l 14,0 0,14 -14,0 z M 322,168 l 14,0 0,14 -14,0 z M 336,168 l 14,0 0,14 -14,0 z M 392,168 l 14,0 0,14 -14,0 z M 406,168 l 14,0 0,14 -14,0 z M 448,168 l 14,0 0,14 -14,0 z M 462,168 l 14,0 0,14 -14,0 z M 504,168 l 14,0 0,14 -14,0 z M 518,168 l 14,0 0,14 -14,0 z M 532,168 l 14,0 0,14 -14,0 z M 560,168 l 14,0 0,14 -14,0 z M 14,182 l 14,0 0,14 -14,0 z M 28,182 l 14,0 0,14 -14,0 z M 56,182 l 14,0 0,14 -14,0 z M 98,182 l 14,0 0,14 -14,0 z M 154,182 l 14,0 0,14 -14,0 z M 196,182 l 14,0 0,14 -14,0 z M 252,182 l 14,0 0,14 -14,0 z M 294,182 l 14,0 0,14 -14,0 z M 322,182 l 14,0 0,14 -14,0 z M 336,182 l 14,0 0,14 -14,0 z M 350,182 l 14,0 0,14 -14,0 z M 364,182 l 14,0 0,14 -14,0 z M 406,182 l 14,0 0,14 -14,0 z M 420,182 l 14,0 0,14 -14,0 z M 448,182 l 14,0 0,14 -14,0 z M 476,182 l 14,0 0,14 -14,0 z M 546,182 l 14,0 0,14 -14,0 z M 14,196 l 14,0 0,14 -14,0 z M 112,196 l 14,0 0,14 -14,0 z M 140,196 l 14,0 0,14 -14,0 z M 168,196 l 14,0 0,14 -14,0 z M 224,196 l 14,0 0,14 -14,0 z M 238,196 l 14,0 0,14 -14,0 z M 252,196 l 14,0 0,14 -14,0 z M 266,196 l 14,0 0,14 -14,0 z M 364,196 l 14,0 0,14 -14,0 z M 392,196 l 14,0 0,14 -14,0 z M 434,196 l 14,0 0,14 -14,0 z M 462,196 l 14,0 0,14 -14,0 z M 476,196 l 14,0 0,14 -14,0 z M 504,196 l 14,0 0,14 -14,0 z M 518,196 l 14,0 0,14 -14,0 z M 532,196 l 14,0 0,14 -14,0 z M 574,196 l 14,0 0,14 -14,0 z M 14,210 l 14,0 0,14 -14,0 z M 28,210 l 14,0 0,14 -14,0 z M 56,210 l 14,0 0,14 -14,0 z M 84,210 l 14,0 0,14 -14,0 z M 98,210 l 14,0 0,14 -14,0 z M 112,210 l 14,0 0,14 -14,0 z M 140,210 l 14,0 0,14 -14,0 z M 154,210 l 14,0 0,14 -14,0 z M 182,210 l 14,0 0,14 -14,0 z M 196,210 l 14,0 0,14 -14,0 z M 224,210 l 14,0 0,14 -14,0 z M 266,210 l 14,0 0,14 -14,0 z M 294,210 l 14,0 0,14 -14,0 z M 336,210 l 14,0 0,14 -14,0 z M 350,210 l 14,0 0,14 -14,0 z M 378,210 l 14,0 0,14 -14,0 z M 392,210 l 14,0 0,14 -14,0 z M 406,210 l 14,0 0,14 -14,0 z M 420,210 l 14,0 0,14 -14,0 z M 448,210 l 14,0 0,14 -14,0 z M 476,210 l 14,0 0,14 -14,0 z M 504,210 l 14,0 0,14 -14,0 z M 532,210 l 14,0 0,14 -14,0 z M 560,210 l 14,0 0,14 -14,0 z M 14,224 l 14,0 0,14 -14,0 z M 56,224 l 14,0 0,14 -14,0 z M 112,224 l 14,0 0,14 -14,0 z M 126,224 l 14,0 0,14 -14,0 z M 154,224 l 14,0 0,14 -14,0 z M 168,224 l 14,0 0,14 -14,0 z M 238,224 l 14,0 0,14 -14,0 z M 266,224 l 14,0 0,14 -14,0 z M 308,224 l 14,0 0,14 -14,0 z M 322,224 l 14,0 0,14 -14,0 z M 336,224 l 14,0 0,14 -14,0 z M 364,224 l 14,0 0,14 -14,0 z M 378,224 l 14,0 0,14 -14,0 z M 392,224 l 14,0 0,14 -14,0 z M 448,224 l 14,0 0,14 -14,0 z M 462,224 l 14,0 0,14 -14,0 z M 504,224 l 14,0 0,14 -14,0 z M 518,224 l 14,0 0,14 -14,0 z M 532,224 l 14,0 0,14 -14,0 z M 560,224 l 14,0 0,14 -14,0 z M 574,224 l 14,0 0,14 -14,0 z M 14,238 l 14,0 0,14 -14,0 z M 42,238 l 14,0 0,14 -14,0 z M 56,238 l 14,0 0,14 -14,0 z M 98,238 l 14,0 0,14 -14,0 z M 196,238 l 14,0 0,14 -14,0 z M 210,238 l 14,0 0,14 -14,0 z M 224,238 l 14,0 0,14 -14,0 z M 252,238 l 14,0 0,14 -14,0 z M 266,238 l 14,0 0,14 -14,0 z M 308,238 l 14,0 0,14 -14,0 z M 336,238 l 14,0 0,14 -14,0 z M 364,238 l 14,0 0,14 -14,0 z M 392,238 l 14,0 0,14 -14,0 z M 420,238 l 14,0 0,14 -14,0 z M 434,238 l 14,0 0,14 -14,0 z M 448,238 l 14,0 0,14 -14,0 z M 532,238 l 14,0 0,14 -14,0 z M 546,238 l 14,0 0,14 -14,0 z M 14,252 l 14,0 0,14 -14,0 z M 84,252 l 14,0 0,14 -14,0 z M 126,252 l 14,0 0,14 -14,0 z M 140,252 l 14,0 0,14 -14,0 z M 210,252 l 14,0 0,14 -14,0 z M 238,252 l 14,0 0,14 -14,0 z M 266,252 l 14,0 0,14 -14,0 z M 322,252 l 14,0 0,14 -14,0 z M 336,252 l 14,0 0,14 -14,0 z M 350,252 l 14,0 0,14 -14,0 z M 420,252 l 14,0 0,14 -14,0 z M 448,252 l 14,0 0,14 -14,0 z M 476,252 l 14,0 0,14 -14,0 z M 490,252 l 14,0 0,14 -14,0 z M 504,252 l 14,0 0,14 -14,0 z M 518,252 l 14,0 0,14 -14,0 z M 532,252 l 14,0 0,14 -14,0 z M 560,252 l 14,0 0,14 -14,0 z M 574,252 l 14,0 0,14 -14,0 z M 28,266 l 14,0 0,14 -14,0 z M 98,266 l 14,0 0,14 -14,0 z M 126,266 l 14,0 0,14 -14,0 z M 182,266 l 14,0 0,14 -14,0 z M 266,266 l 14,0 0,14 -14,0 z M 280,266 l 14,0 0,14 -14,0 z M 322,266 l 14,0 0,14 -14,0 z M 392,266 l 14,0 0,14 -14,0 z M 420,266 l 14,0 0,14 -14,0 z M 504,266 l 14,0 0,14 -14,0 z M 14,280 l 14,0 0,14 -14,0 z M 56,280 l 14,0 0,14 -14,0 z M 70,280 l 14,0 0,14 -14,0 z M 84,280 l 14,0 0,14 -14,0 z M 112,280 l 14,0 0,14 -14,0 z M 154,280 l 14,0 0,14 -14,0 z M 168,280 l 14,0 0,14 -14,0 z M 224,280 l 14,0 0,14 -14,0 z M 336,280 l 14,0 0,14 -14,0 z M 350,280 l 14,0 0,14 -14,0 z M 378,280 l 14,0 0,14 -14,0 z M 392,280 l 14,0 0,14 -14,0 z M 406,280 l 14,0 0,14 -14,0 z M 420,280 l 14,0 0,14 -14,0 z M 434,280 l 14,0 0,14 -14,0 z M 518,280 l 14,0 0,14 -14,0 z M 532,280 l 14,0 0,14 -14,0 z M 560,280 l 14,0 0,14 -14,0 z M 14,294 l 14,0 0,14 -14,0 z M 70,294 l 14,0 0,14 -14,0 z M 98,294 l 14,0 0,14 -14,0 z M 112,294 l 14,0 0,14 -14,0 z M 140,294 l 14,0 0,14 -14,0 z M 154,294 l 14,0 0,14 -14,0 z M 168,294 l 14,0 0,14 -14,0 z M 182,294 l 14,0 0,14 -14,0 z M 210,294 l 14,0 0,14 -14,0 z M 266,294 l 14,0 0,14 -14,0 z M 308,294 l 14,0 0,14 -14,0 z M 322,294 l 14,0 0,14 -14,0 z M 336,294 l 14,0 0,14 -14,0 z M 350,294 l 14,0 0,14 -14,0 z M 392,294 l 14,0 0,14 -14,0 z M 448,294 l 14,0 0,14 -14,0 z M 546,294 l 14,0 0,14 -14,0 z M 42,308 l 14,0 0,14 -14,0 z M 56,308 l 14,0 0,14 -14,0 z M 70,308 l 14,0 0,14 -14,0 z M 168,308 l 14,0 0,14 -14,0 z M 182,308 l 14,0 0,14 -14,0 z M 196,308 l 14,0 0,14 -14,0 z M 224,308 l 14,0 0,14 -14,0 z M 280,308 l 14,0 0,14 -14,0 z M 294,308 l 14,0 0,14 -14,0 z M 308,308 l 14,0 0,14 -14,0 z M 336,308 l 14,0 0,14 -14,0 z M 364,308 l 14,0 0,14 -14,0 z M 378,308 l 14,0 0,14 -14,0 z M 406,308 l 14,0 0,14 -14,0 z M 420,308 l 14,0 0,14 -14,0 z M 434,308 l 14,0 0,14 -14,0 z M 448,308 l 14,0 0,14 -14,0 z M 462,308 l 14,0 0,14 -14,0 z M 476,308 l 14,0 0,14 -14,0 z M 490,308 l 14,0 0,14 -14,0 z M 504,308 l 14,0 0,14 -14,0 z M 518,308 l 14,0 0,14 -14,0 z M 532,308 l 14,0 0,14 -14,0 z M 574,308 l 14,0 0,14 -14,0 z M 14,322 l 14,0 0,14 -14,0 z M 70,322 l 14,0 0,14 -14,0 z M 84,322 l 14,0 0,14 -14,0 z M 98,322 l 14,0 0,14 -14,0 z M 154,322 l 14,0 0,14 -14,0 z M 168,322 l 14,0 0,14 -14,0 z M 182,322 l 14,0 0,14 -14,0 z M 196,322 l 14,0 0,14 -14,0 z M 238,322 l 14,0 0,14 -14,0 z M 252,322 l 14,0 0,14 -14,0 z M 266,322 l 14,0 0,14 -14,0 z M 308,322 l 14,0 0,14 -14,0 z M 322,322 l 14,0 0,14 -14,0 z M 364,322 l 14,0 0,14 -14,0 z M 378,322 l 14,0 0,14 -14,0 z M 392,322 l 14,0 0,14 -14,0 z M 406,322 l 14,0 0,14 -14,0 z M 420,322 l 14,0 0,14 -14,0 z M 476,322 l 14,0 0,14 -14,0 z M 518,322 l 14,0 0,14 -14,0 z M 532,322 l 14,0 0,14 -14,0 z M 14,336 l 14,0 0,14 -14,0 z M 28,336 l 14,0 0,14 -14,0 z M 42,336 l 14,0 0,14 -14,0 z M 112,336 l 14,0 0,14 -14,0 z M 168,336 l 14,0 0,14 -14,0 z M 182,336 l 14,0 0,14 -14,0 z M 196,336 l 14,0 0,14 -14,0 z M 224,336 l 14,0 0,14 -14,0 z M 238,336 l 14,0 0,14 -14,0 z M 294,336 l 14,0 0,14 -14,0 z M 308,336 l 14,0 0,14 -14,0 z M 336,336 l 14,0 0,14 -14,0 z M 378,336 l 14,0 0,14 -14,0 z M 434,336 l 14,0 0,14 -14,0 z M 476,336 l 14,0 0,14 -14,0 z M 490,336 l 14,0 0,14 -14,0 z M 504,336 l 14,0 0,14 -14,0 z M 518,336 l 14,0 0,14 -14,0 z M 532,336 l 14,0 0,14 -14,0 z M 42,350 l 14,0 0,14 -14,0 z M 70,350 l 14,0 0,14 -14,0 z M 98,350 l 14,0 0,14 -14,0 z M 112,350 l 14,0 0,14 -14,0 z M 126,350 l 14,0 0,14 -14,0 z M 140,350 l 14,0 0,14 -14,0 z M 168,350 l 14,0 0,14 -14,0 z M 252,350 l 14,0 0,14 -14,0 z M 266,350 l 14,0 0,14 -14,0 z M 322,350 l 14,0 0,14 -14,0 z M 336,350 l 14,0 0,14 -14,0 z M 350,350 l 14,0 0,14 -14,0 z M 364,350 l 14,0 0,14 -14,0 z M 378,350 l 14,0 0,14 -14,0 z M 392,350 l 14,0 0,14 -14,0 z M 420,350 l 14,0 0,14 -14,0 z M 434,350 l 14,0 0,14 -14,0 z M 448,350 l 14,0 0,14 -14,0 z M 476,350 l 14,0 0,14 -14,0 z M 504,350 l 14,0 0,14 -14,0 z M 546,350 l 14,0 0,14 -14,0 z M 574,350 l 14,0 0,14 -14,0 z M 112,364 l 14,0 0,14 -14,0 z M 126,364 l 14,0 0,14 -14,0 z M 154,364 l 14,0 0,14 -14,0 z M 168,364 l 14,0 0,14 -14,0 z M 182,364 l 14,0 0,14 -14,0 z M 238,364 l 14,0 0,14 -14,0 z M 266,364 l 14,0 0,14 -14,0 z M 280,364 l 14,0 0,14 -14,0 z M 294,364 l 14,0 0,14 -14,0 z M 336,364 l 14,0 0,14 -14,0 z M 350,364 l 14,0 0,14 -14,0 z M 364,364 l 14,0 0,14 -14,0 z M 420,364 l 14,0 0,14 -14,0 z M 448,364 l 14,0 0,14 -14,0 z M 490,364 l 14,0 0,14 -14,0 z M 518,364 l 14,0 0,14 -14,0 z M 532,364 l 14,0 0,14 -14,0 z M 560,364 l 14,0 0,14 -14,0 z M 14,378 l 14,0 0,14 -14,0 z M 56,378 l 14,0 0,14 -14,0 z M 84,378 l 14,0 0,14 -14,0 z M 98,378 l 14,0 0,14 -14,0 z M 154,378 l 14,0 0,14 -14,0 z M 210,378 l 14,0 0,14 -14,0 z M 238,378 l 14,0 0,14 -14,0 z M 252,378 l 14,0 0,14 -14,0 z M 266,378 l 14,0 0,14 -14,0 z M 294,378 l 14,0 0,14 -14,0 z M 322,378 l 14,0 0,14 -14,0 z M 378,378 l 14,0 0,14 -14,0 z M 392,378 l 14,0 0,14 -14,0 z M 420,378 l 14,0 0,14 -14,0 z M 434,378 l 14,0 0,14 -14,0 z M 490,378 l 14,0 0,14 -14,0 z M 504,378 l 14,0 0,14 -14,0 z M 518,378 l 14,0 0,14 -14,0 z M 532,378 l 14,0 0,14 -14,0 z M 560,378 l 14,0 0,14 -14,0 z M 28,392 l 14,0 0,14 -14,0 z M 42,392 l 14,0 0,14 -14,0 z M 70,392 l 14,0 0,14 -14,0 z M 112,392 l 14,0 0,14 -14,0 z M 140,392 l 14,0 0,14 -14,0 z M 154,392 l 14,0 0,14 -14,0 z M 168,392 l 14,0 0,14 -14,0 z M 266,392 l 14,0 0,14 -14,0 z M 308,392 l 14,0 0,14 -14,0 z M 336,392 l 14,0 0,14 -14,0 z M 350,392 l 14,0 0,14 -14,0 z M 378,392 l 14,0 0,14 -14,0 z M 406,392 l 14,0 0,14 -14,0 z M 448,392 l 14,0 0,14 -14,0 z M 476,392 l 14,0 0,14 -14,0 z M 490,392 l 14,0 0,14 -14,0 z M 504,392 l 14,0 0,14 -14,0 z M 532,392 l 14,0 0,14 -14,0 z M 560,392 l 14,0 0,14 -14,0 z M 28,406 l 14,0 0,14 -14,0 z M 98,406 l 14,0 0,14 -14,0 z M 126,406 l 14,0 0,14 -14,0 z M 154,406 l 14,0 0,14 -14,0 z M 182,406 l 14,0 0,14 -14,0 z M 224,406 l 14,0 0,14 -14,0 z M 238,406 l 14,0 0,14 -14,0 z M 252,406 l 14,0 0,14 -14,0 z M 280,406 l 14,0 0,14 -14,0 z M 336,406 l 14,0 0,14 -14,0 z M 364,406 l 14,0 0,14 -14,0 z M 378,406 l 14,0 0,14 -14,0 z M 420,406 l 14,0 0,14 -14,0 z M 434,406 l 14,0 0,14 -14,0 z M 448,406 l 14,0 0,14 -14,0 z M 462,406 l 14,0 0,14 -14,0 z M 490,406 l 14,0 0,14 -14,0 z M 504,406 l 14,0 0,14 -14,0 z M 546,406 l 14,0 0,14 -14,0 z M 14,420 l 14,0 0,14 -14,0 z M 28,420 l 14,0 0,14 -14,0 z M 126,420 l 14,0 0,14 -14,0 z M 168,420 l 14,0 0,14 -14,0 z M 182,420 l 14,0 0,14 -14,0 z M 224,420 l 14,0 0,14 -14,0 z M 238,420 l 14,0 0,14 -14,0 z M 252,420 l 14,0 0,14 -14,0 z M 266,420 l 14,0 0,14 -14,0 z M 294,420 l 14,0 0,14 -14,0 z M 350,420 l 14,0 0,14 -14,0 z M 378,420 l 14,0 0,14 -14,0 z M 392,420 l 14,0 0,14 -14,0 z M 406,420 l 14,0 0,14 -14,0 z M 420,420 l 14,0 0,14 -14,0 z M 434,420 l 14,0 0,14 -14,0 z M 476,420 l 14,0 0,14 -14,0 z M 504,420 l 14,0 0,14 -14,0 z M 518,420 l 14,0 0,14 -14,0 z M 532,420 l 14,0 0,14 -14,0 z M 560,420 l 14,0 0,14 -14,0 z M 574,420 l 14,0 0,14 -14,0 z M 14,434 l 14,0 0,14 -14,0 z M 42,434 l 14,0 0,14 -14,0 z M 56,434 l 14,0 0,14 -14,0 z M 70,434 l 14,0 0,14 -14,0 z M 98,434 l 14,0 0,14 -14,0 z M 126,434 l 14,0 0,14 -14,0 z M 168,434 l 14,0 0,14 -14,0 z M 196,434 l 14,0 0,14 -14,0 z M 210,434 l 14,0 0,14 -14,0 z M 224,434 l 14,0 0,14 -14,0 z M 266,434 l 14,0 0,14 -14,0 z M 280,434 l 14,0 0,14 -14,0 z M 308,434 l 14,0 0,14 -14,0 z M 434,434 l 14,0 0,14 -14,0 z M 462,434 l 14,0 0,14 -14,0 z M 490,434 l 14,0 0,14 -14,0 z M 504,434 l 14,0 0,14 -14,0 z M 546,434 l 14,0 0,14 -14,0 z M 14,448 l 14,0 0,14 -14,0 z M 84,448 l 14,0 0,14 -14,0 z M 112,448 l 14,0 0,14 -14,0 z M 140,448 l 14,0 0,14 -14,0 z M 168,448 l 14,0 0,14 -14,0 z M 196,448 l 14,0 0,14 -14,0 z M 238,448 l 14,0 0,14 -14,0 z M 280,448 l 14,0 0,14 -14,0 z M 294,448 l 14,0 0,14 -14,0 z M 322,448 l 14,0 0,14 -14,0 z M 350,448 l 14,0 0,14 -14,0 z M 406,448 l 14,0 0,14 -14,0 z M 476,448 l 14,0 0,14 -14,0 z M 504,448 l 14,0 0,14 -14,0 z M 14,462 l 14,0 0,14 -14,0 z M 56,462 l 14,0 0,14 -14,0 z M 98,462 l 14,0 0,14 -14,0 z M 140,462 l 14,0 0,14 -14,0 z M 154,462 l 14,0 0,14 -14,0 z M 182,462 l 14,0 0,14 -14,0 z M 210,462 l 14,0 0,14 -14,0 z M 224,462 l 14,0 0,14 -14,0 z M 238,462 l 14,0 0,14 -14,0 z M 266,462 l 14,0 0,14 -14,0 z M 280,462 l 14,0 0,14 -14,0 z M 294,462 l 14,0 0,14 -14,0 z M 308,462 l 14,0 0,14 -14,0 z M 350,462 l 14,0 0,14 -14,0 z M 364,462 l 14,0 0,14 -14,0 z M 420,462 l 14,0 0,14 -14,0 z M 434,462 l 14,0 0,14 -14,0 z M 462,462 l 14,0 0,14 -14,0 z M 476,462 l 14,0 0,14 -14,0 z M 490,462 l 14,0 0,14 -14,0 z M 504,462 l 14,0 0,14 -14,0 z M 518,462 l 14,0 0,14 -14,0 z M 546,462 l 14,0 0,14 -14,0 z M 126,476 l 14,0 0,14 -14,0 z M 168,476 l 14,0 0,14 -14,0 z M 182,476 l 14,0 0,14 -14,0 z M 210,476 l 14,0 0,14 -14,0 z M 224,476 l 14,0 0,14 -14,0 z M 252,476 l 14,0 0,14 -14,0 z M 308,476 l 14,0 0,14 -14,0 z M 350,476 l 14,0 0,14 -14,0 z M 364,476 l 14,0 0,14 -14,0 z M 378,476 l 14,0 0,14 -14,0 z M 406,476 l 14,0 0,14 -14,0 z M 448,476 l 14,0 0,14 -14,0 z M 462,476 l 14,0 0,14 -14,0 z M 518,476 l 14,0 0,14 -14,0 z M 560,476 l 14,0 0,14 -14,0 z M 574,476 l 14,0 0,14 -14,0 z M 14,490 l 14,0 0,14 -14,0 z M 28,490 l 14,0 0,14 -14,0 z M 42,490 l 14,0 0,14 -14,0 z M 56,490 l 14,0 0,14 -14,0 z M 70,490 l 14,0 0,14 -14,0 z M 84,490 l 14,0 0,14 -14,0 z M 98,490 l 14,0 0,14 -14,0 z M 140,490 l 14,0 0,14 -14,0 z M 168,490 l 14,0 0,14 -14,0 z M 224,490 l 14,0 0,14 -14,0 z M 252,490 l 14,0 0,14 -14,0 z M 294,490 l 14,0 0,14 -14,0 z M 308,490 l 14,0 0,14 -14,0 z M 364,490 l 14,0 0,14 -14,0 z M 378,490 l 14,0 0,14 -14,0 z M 392,490 l 14,0 0,14 -14,0 z M 406,490 l 14,0 0,14 -14,0 z M 434,490 l 14,0 0,14 -14,0 z M 448,490 l 14,0 0,14 -14,0 z M 462,490 l 14,0 0,14 -14,0 z M 490,490 l 14,0 0,14 -14,0 z M 518,490 l 14,0 0,14 -14,0 z M 546,490 l 14,0 0,14 -14,0 z M 14,504 l 14,0 0,14 -14,0 z M 98,504 l 14,0 0,14 -14,0 z M 126,504 l 14,0 0,14 -14,0 z M 140,504 l 14,0 0,14 -14,0 z M 154,504 l 14,0 0,14 -14,0 z M 210,504 l 14,0 0,14 -14,0 z M 252,504 l 14,0 0,14 -14,0 z M 266,504 l 14,0 0,14 -14,0 z M 280,504 l 14,0 0,14 -14,0 z M 308,504 l 14,0 0,14 -14,0 z M 322,504 l 14,0 0,14 -14,0 z M 336,504 l 14,0 0,14 -14,0 z M 350,504 l 14,0 0,14 -14,0 z M 364,504 l 14,0 0,14 -14,0 z M 462,504 l 14,0 0,14 -14,0 z M 518,504 l 14,0 0,14 -14,0 z M 560,504 l 14,0 0,14 -14,0 z M 574,504 l 14,0 0,14 -14,0 z M 14,518 l 14,0 0,14 -14,0 z M 42,518 l 14,0 0,14 -14,0 z M 56,518 l 14,0 0,14 -14,0 z M 70,518 l 14,0 0,14 -14,0 z M 98,518 l 14,0 0,14 -14,0 z M 126,518 l 14,0 0,14 -14,0 z M 154,518 l 14,0 0,14 -14,0 z M 168,518 l 14,0 0,14 -14,0 z M 182,518 l 14,0 0,14 -14,0 z M 308,518 l 14,0 0,14 -14,0 z M 350,518 l 14,0 0,14 -14,0 z M 378,518 l 14,0 0,14 -14,0 z M 392,518 l 14,0 0,14 -14,0 z M 434,518 l 14,0 0,14 -14,0 z M 462,518 l 14,0 0,14 -14,0 z M 476,518 l 14,0 0,14 -14,0 z M 490,518 l 14,0 0,14 -14,0 z M 504,518 l 14,0 0,14 -14,0 z M 518,518 l 14,0 0,14 -14,0 z M 546,518 l 14,0 0,14 -14,0 z M 574,518 l 14,0 0,14 -14,0 z M 14,532 l 14,0 0,14 -14,0 z M 42,532 l 14,0 0,14 -14,0 z M 56,532 l 14,0 0,14 -14,0 z M 70,532 l 14,0 0,14 -14,0 z M 98,532 l 14,0 0,14 -14,0 z M 126,532 l 14,0 0,14 -14,0 z M 168,532 l 14,0 0,14 -14,0 z M 196,532 l 14,0 0,14 -14,0 z M 210,532 l 14,0 0,14 -14,0 z M 224,532 l 14,0 0,14 -14,0 z M 238,532 l 14,0 0,14 -14,0 z M 252,532 l 14,0 0,14 -14,0 z M 266,532 l 14,0 0,14 -14,0 z M 280,532 l 14,0 0,14 -14,0 z M 294,532 l 14,0 0,14 -14,0 z M 308,532 l 14,0 0,14 -14,0 z M 322,532 l 14,0 0,14 -14,0 z M 336,532 l 14,0 0,14 -14,0 z M 364,532 l 14,0 0,14 -14,0 z M 406,532 l 14,0 0,14 -14,0 z M 420,532 l 14,0 0,14 -14,0 z M 448,532 l 14,0 0,14 -14,0 z M 476,532 l 14,0 0,14 -14,0 z M 532,532 l 14,0 0,14 -14,0 z M 574,532 l 14,0 0,14 -14,0 z M 14,546 l 14,0 0,14 -14,0 z M 42,546 l 14,0 0,14 -14,0 z M 56,546 l 14,0 0,14 -14,0 z M 70,546 l 14,0 0,14 -14,0 z M 98,546 l 14,0 0,14 -14,0 z M 126,546 l 14,0 0,14 -14,0 z M 168,546 l 14,0 0,14 -14,0 z M 182,546 l 14,0 0,14 -14,0 z M 196,546 l 14,0 0,14 -14,0 z M 224,546 l 14,0 0,14 -14,0 z M 238,546 l 14,0 0,14 -14,0 z M 294,546 l 14,0 0,14 -14,0 z M 322,546 l 14,0 0,14 -14,0 z M 350,546 l 14,0 0,14 -14,0 z M 364,546 l 14,0 0,14 -14,0 z M 378,546 l 14,0 0,14 -14,0 z M 392,546 l 14,0 0,14 -14,0 z M 406,546 l 14,0 0,14 -14,0 z M 434,546 l 14,0 0,14 -14,0 z M 490,546 l 14,0 0,14 -14,0 z M 504,546 l 14,0 0,14 -14,0 z M 518,546 l 14,0 0,14 -14,0 z M 532,546 l 14,0 0,14 -14,0 z M 560,546 l 14,0 0,14 -14,0 z M 14,560 l 14,0 0,14 -14,0 z M 98,560 l 14,0 0,14 -14,0 z M 140,560 l 14,0 0,14 -14,0 z M 154,560 l 14,0 0,14 -14,0 z M 182,560 l 14,0 0,14 -14,0 z M 196,560 l 14,0 0,14 -14,0 z M 224,560 l 14,0 0,14 -14,0 z M 238,560 l 14,0 0,14 -14,0 z M 252,560 l 14,0 0,14 -14,0 z M 266,560 l 14,0 0,14 -14,0 z M 294,560 l 14,0 0,14 -14,0 z M 308,560 l 14,0 0,14 -14,0 z M 322,560 l 14,0 0,14 -14,0 z M 336,560 l 14,0 0,14 -14,0 z M 350,560 l 14,0 0,14 -14,0 z M 378,560 l 14,0 0,14 -14,0 z M 406,560 l 14,0 0,14 -14,0 z M 434,560 l 14,0 0,14 -14,0 z M 462,560 l 14,0 0,14 -14,0 z M 476,560 l 14,0 0,14 -14,0 z M 560,560 l 14,0 0,14 -14,0 z M 14,574 l 14,0 0,14 -14,0 z M 28,574 l 14,0 0,14 -14,0 z M 42,574 l 14,0 0,14 -14,0 z M 56,574 l 14,0 0,14 -14,0 z M 70,574 l 14,0 0,14 -14,0 z M 84,574 l 14,0 0,14 -14,0 z M 98,574 l 14,0 0,14 -14,0 z M 126,574 l 14,0 0,14 -14,0 z M 154,574 l 14,0 0,14 -14,0 z M 168,574 l 14,0 0,14 -14,0 z M 182,574 l 14,0 0,14 -14,0 z M 210,574 l 14,0 0,14 -14,0 z M 224,574 l 14,0 0,14 -14,0 z M 252,574 l 14,0 0,14 -14,0 z M 280,574 l 14,0 0,14 -14,0 z M 322,574 l 14,0 0,14 -14,0 z M 350,574 l 14,0 0,14 -14,0 z M 364,574 l 14,0 0,14 -14,0 z M 378,574 l 14,0 0,14 -14,0 z M 420,574 l 14,0 0,14 -14,0 z M 448,574 l 14,0 0,14 -14,0 z M 476,574 l 14,0 0,14 -14,0 z M 490,574 l 14,0 0,14 -14,0 z M 518,574 l 14,0 0,14 -14,0 z M 532,574 l 14,0 0,14 -14,0 z M 546,574 l 14,0 0,14 -14,0 z " />
	</g>
</svg>
