<?xml version="1.0" standalone="no"?>
<svg xmlns="http://www.w3.org/2000/svg" version="1.1" width="624" height="624">
	<!-- Created with https://api.qrserver.com (QR Code API, see goQR.me/api for information) -->
	<title>QR Code</title>
	<desc>webcal://n8n-hook.mtgibbs.dev/webhook/cal-rory-d4ba8436-1a91-46e8-ad42-d3a13c85f56e</desc>
	<rect style="fill:rgb(255, 255, 255);fill-opacity:1" x="0" y="0" width="624" height="624" />
	<g id="elements">
		<path style="fill:rgb(0, 0, 0)" d="M 16,16 l 16,0 0,16 -16,0 z M 32,16 l 16,0 0,16 -16,0 z M 48,16 l 16,0 0,16 -16,0 z M 64,16 l 16,0 0,16 -16,0 z M 80,16 l 16,0 0,16 -16,0 z M 96,16 l 16,0 0,16 -16,0 z M 112,16 l 16,0 0,16 -16,0 z M 208,16 l 16,0 0,16 -16,0 z M 256,16 l 16,0 0,16 -16,0 z M 288,16 l 16,0 0,16 -16,0 z M 304,16 l 16,0 0,16 -16,0 z M 336,16 l 16,0 0,16 -16,0 z M 352,16 l 16,0 0,16 -16,0 z M 368,16 l 16,0 0,16 -16,0 z M 416,16 l 16,0 0,16 -16,0 z M 432,16 l 16,0 0,16 -16,0 z M 448,16 l 16,0 0,16 -16,0 z M 496,16 l 16,0 0,16 -16,0 z M 512,16 l 16,0 0,16 -16,0 z M 528,16 l 16,0 0,16 -16,0 z M 544,16 l 16,0 0,16 -16,0 z M 560,16 l 16,0 0,16 -16,0 z M 576,16 l 16,0 0,16 -16,0 z M 592,16 l 16,0 0,16 -16,0 z M 16,32 l 16,0 0,16 -16,0 z M 112,32 l 16,0 0,16 -16,0 z M 176,32 l 16,0 0,16 -16,0 z M 208,32 l 16,0 0,16 -16,0 z M 224,32 l 16,0 0,16 -16,0 z M 256,32 l 16,0 0,16 -16,0 z M 304,32 l 16,0 0,16 -16,0 z M 416,32 l 16,0 0,16 -16,0 z M 432,32 l 16,0 0,16 -16,0 z M 496,32 l 16,0 0,16 -16,0 z M 592,32 l 16,0 0,16 -16,0 z M 16,48 l 16,0 0,16 -16,0 z M 48,48 l 16,0 0,16 -16,0 z M 64,48 l 16,0 0,16 -16,0 z M 80,48 l 16,0 0,16 -16,0 z M 112,48 l 16,0 0,16 -16,0 z M 144,48 l 16,0 0,16 -16,0 z M 160,48 l 16,0 0,16 -16,0 z M 208,48 l 16,0 0,16 -16,0 z M 240,48 l 16,0 0,16 -16,0 z M 256,48 l 16,0 0,16 -16,0 z M 304,48 l 16,0 0,16 -16,0 z M 336,48 l 16,0 0,16 -16,0 z M 352,48 l 16,0 0,16 -16,0 z M 368,48 l 16,0 0,16 -16,0 z M 384,48 l 16,0 0,16 -16,0 z M 400,48 l 16,0 0,16 -16,0 z M 432,48 l 16,0 0,16 -16,0 z M 464,48 l 16,0 0,16 -16,0 z M 496,48 l 16,0 0,16 -16,0 z M 528,48 l 16,0 0,16 -16,0 z M 544,48 l 16,0 0,16 -16,0 z M 560,48 l 16,0 0,16 -16,0 z M 592,48 l 16,0 0,16 -16,0 z M 16,64 l 16,0 0,16 -16,0 z M 48,64 l 16,0 0,16 -16,0 z M 64,64 l 16,0 0,16 -16,0 z M 80,64 l 16,0 0,16 -16,0 z M 112,64 l 16,0 0,16 -16,0 z M 144,64 l 16,0 0,16 -16,0 z M 160,64 l 16,0 0,16 -16,0 z M 224,64 l 16,0 0,16 -16,0 z M 288,64 l 16,0 0,16 -16,0 z M 320,64 l 16,0 0,16 -16,0 z M 384,64 l 16,0 0,16 -16,0 z M 416,64 l 16,0 0,16 -16,0 z M 432,64 l 16,0 0,16 -16,0 z M 448,64 l 16,0 0,16 -16,0 z M 496,64 l 16,0 0,16 -16,0 z M 528,64 l 16,0 0,16 -16,0 z M 544,64 l 16,0 0,16 -16,0 z M 560,64 l 16,0 0,16 -16,0 z M 592,64 l 16,0 0,16 -16,0 z M 16,80 l 16,0 0,16 -16,0 z M 48,80 l 16,0 0,16 -16,0 z M 64,80 l 16,0 0,16 -16,0 z M 80,80 l 16,0 0,16 -16,0 z M 112,80 l 16,0 0,16 -16,0 z M 144,80 l 16,0 0,16 -16,0 z M 160,80 l 16,0 0,16 -16,0 z M 176,80 l 16,0 0,16 -16,0 z M 224,80 l 16,0 0,16 -16,0 z M 288,80 l 16,0 0,16 -16,0 z M 304,80 l 16,0 0,16 -16,0 z M 320,80 l 16,0 0,16 -16,0 z M 336,80 l 16,0 0,16 -16,0 z M 384,80 l 16,0 0,16 -16,0 z M 416,80 l 16,0 0,16 -16,0 z M 464,80 l 16,0 0,16 -16,0 z M 496,80 l 16,0 0,16 -16,0 z M 528,80 l 16,0 0,16 -16,0 z M 544,80 l 16,0 0,16 -16,0 z M 560,80 l 16,0 0,16 -16,0 z M 592,80 l 16,0 0,16 -16,0 z M 16,96 l 16,0 0,16 -16,0 z M 112,96 l 16,0 0,16 -16,0 z M 144,96 l 16,0 0,16 -16,0 z M 176,96 l 16,0 0,16 -16,0 z M 192,96 l 16,0 0,16 -16,0 z M 208,96 l 16,0 0,16 -16,0 z M 224,96 l 16,0 0,16 -16,0 z M 272,96 l 16,0 0,16 -16,0 z M 352,96 l 16,0 0,16 -16,0 z M 400,96 l 16,0 0,16 -16,0 z M 448,96 l 16,0 0,16 -16,0 z M 464,96 l 16,0 0,16 -16,0 z M 496,96 l 16,0 0,16 -16,0 z M 592,96 l 16,0 0,16 -16,0 z M 16,112 l 16,0 0,16 -16,0 z M 32,112 l 16,0 0,16 -16,0 z M 48,112 l 16,0 0,16 -16,0 z M 64,112 l 16,0 0,16 -16,0 z M 80,112 l 16,0 0,16 -16,0 z M 96,112 l 16,0 0,16 -16,0 z M 112,112 l 16,0 0,16 -16,0 z M 144,112 l 16,0 0,16 -16,0 z M 176,112 l 16,0 0,16 -16,0 z M 208,112 l 16,0 0,16 -16,0 z M 240,112 l 16,0 0,16 -16,0 z M 272,112 l 16,0 0,16 -16,0 z M 304,112 l 16,0 0,16 -16,0 z M 336,112 l 16,0 0,16 -16,0 z M 368,112 l 16,0 0,16 -16,0 z M 400,112 l 16,0 0,16 -16,0 z M 432,112 l 16,0 0,16 -16,0 z M 464,112 l 16,0 0,16 -16,0 z M 496,112 l 16,0 0,16 -16,0 z M 512,112 l 16,0 0,16 -16,0 z M 528,112 l 16,0 0,16 -16,0 z M 544,112 l 16,0 0,16 -16,0 z M 560,112 l 16,0 0,16 -16,0 z M 576,112 l 16,0 0,16 -16,0 z M 592,112 l 16,0 0,16 -16,0 z M 144,128 l 16,0 0,16 -16,0 z M 160,128 l 16,0 0,16 -16,0 z M 192,128 l 16,0 0,16 -16,0 z M 208,128 l 16,0 0,16 -16,0 z M 224,128 l 16,0 0,16 -16,0 z M 272,128 l 16,0 0,16 -16,0 z M 288,128 l 16,0 0,16 -16,0 z M 304,128 l 16,0 0,16 -16,0 z M 320,128 l 16,0 0,16 -16,0 z M 352,128 l 16,0 0,16 -16,0 z M 384,128 l 16,0 0,16 -16,0 z M 400,128 l 16,0 0,16 -16,0 z M 464,128 l 16,0 0,16 -16,0 z M 16,144 l 16,0 0,16 -16,0 z M 48,144 l 16,0 0,16 -16,0 z M 64,144 l 16,0 0,16 -16,0 z M 80,144 l 16,0 0,16 -16,0 z M 96,144 l 16,0 0,16 -16,0 z M 112,144 l 16,0 0,16 -16,0 z M 176,144 l 16,0 0,16 -16,0 z M 192,144 l 16,0 0,16 -16,0 z M 208,144 l 16,0 0,16 -16,0 z M 224,144 l 16,0 0,16 -16,0 z M 256,144 l 16,0 0,16 -16,0 z M 352,144 l 16,0 0,16 -16,0 z M 368,144 l 16,0 0,16 -16,0 z M 400,144 l 16,0 0,16 -16,0 z M 432,144 l 16,0 0,16 -16,0 z M 496,144 l 16,0 0,16 -16,0 z M 512,144 l 16,0 0,16 -16,0 z M 528,144 l 16,0 0,16 -16,0 z M 544,144 l 16,0 0,16 -16,0 z M 560,144 l 16,0 0,16 -16,0 z M 16,160 l 16,0 0,16 -16,0 z M 128,160 l 16,0 0,16 -16,0 z M 192,160 l 16,0 0,16 -16,0 z M 208,160 l 16,0 0,16 -16,0 z M 256,160 l 16,0 0,16 -16,0 z M 272,160 l 16,0 0,16 -16,0 z M 288,160 l 16,0 0,16 -16,0 z M 336,160 l 16,0 0,16 -16,0 z M 368,160 l 16,0 0,16 -16,0 z M 400,160 l 16,0 0,16 -16,0 z M 416,160 l 16,0 0,16 -16,0 z M 448,160 l 16,0 0,16 -16,0 z M 544,160 l 16,0 0,16 -16,0 z M 32,176 l 16,0 0,16 -16,0 z M 48,176 l 16,0 0,16 -16,0 z M 80,176 l 16,0 0,16 -16,0 z M 96,176 l 16,0 0,16 -16,0 z M 112,176 l 16,0 0,16 -16,0 z M 128,176 l 16,0 0,16 -16,0 z M 192,176 l 16,0 0,16 -16,0 z M 208,176 l 16,0 0,16 -16,0 z M 240,176 l 16,0 0,16 -16,0 z M 256,176 l 16,0 0,16 -16,0 z M 272,176 l 16,0 0,16 -16,0 z M 288,176 l 16,0 0,16 -16,0 z M 368,176 l 16,0 0,16 -16,0 z M 400,176 l 16,0 0,16 -16,0 z M 416,176 l 16,0 0,16 -16,0 z M 448,176 l 16,0 0,16 -16,0 z M 464,176 l 16,0 0,16 -16,0 z M 480,176 l 16,0 0,16 -16,0 z M 512,176 l 16,0 0,16 -16,0 z M 544,176 l 16,0 0,16 -16,0 z M 560,176 l 16,0 0,16 -16,0 z M 576,176 l 16,0 0,16 -16,0 z M 592,176 l 16,0 0,16 -16,0 z M 16,192 l 16,0 0,16 -16,0 z M 32,192 l 16,0 0,16 -16,0 z M 48,192 l 16,0 0,16 -16,0 z M 80,192 l 16,0 0,16 -16,0 z M 128,192 l 16,0 0,16 -16,0 z M 144,192 l 16,0 0,16 -16,0 z M 176,192 l 16,0 0,16 -16,0 z M 192,192 l 16,0 0,16 -16,0 z M 240,192 l 16,0 0,16 -16,0 z M 256,192 l 16,0 0,16 -16,0 z M 352,192 l 16,0 0,16 -16,0 z M 384,192 l 16,0 0,16 -16,0 z M 432,192 l 16,0 0,16 -16,0 z M 448,192 l 16,0 0,16 -16,0 z M 480,192 l 16,0 0,16 -16,0 z M 576,192 l 16,0 0,16 -16,0 z M 592,192 l 16,0 0,16 -16,0 z M 48,208 l 16,0 0,16 -16,0 z M 64,208 l 16,0 0,16 -16,0 z M 80,208 l 16,0 0,16 -16,0 z M 112,208 l 16,0 0,16 -16,0 z M 160,208 l 16,0 0,16 -16,0 z M 176,208 l 16,0 0,16 -16,0 z M 192,208 l 16,0 0,16 -16,0 z M 208,208 l 16,0 0,16 -16,0 z M 240,208 l 16,0 0,16 -16,0 z M 288,208 l 16,0 0,16 -16,0 z M 320,208 l 16,0 0,16 -16,0 z M 368,208 l 16,0 0,16 -16,0 z M 384,208 l 16,0 0,16 -16,0 z M 400,208 l 16,0 0,16 -16,0 z M 416,208 l 16,0 0,16 -16,0 z M 480,208 l 16,0 0,16 -16,0 z M 496,208 l 16,0 0,16 -16,0 z M 528,208 l 16,0 0,16 -16,0 z M 560,208 l 16,0 0,16 -16,0 z M 576,208 l 16,0 0,16 -16,0 z M 592,208 l 16,0 0,16 -16,0 z M 80,224 l 16,0 0,16 -16,0 z M 128,224 l 16,0 0,16 -16,0 z M 208,224 l 16,0 0,16 -16,0 z M 224,224 l 16,0 0,16 -16,0 z M 240,224 l 16,0 0,16 -16,0 z M 288,224 l 16,0 0,16 -16,0 z M 304,224 l 16,0 0,16 -16,0 z M 320,224 l 16,0 0,16 -16,0 z M 336,224 l 16,0 0,16 -16,0 z M 384,224 l 16,0 0,16 -16,0 z M 416,224 l 16,0 0,16 -16,0 z M 464,224 l 16,0 0,16 -16,0 z M 544,224 l 16,0 0,16 -16,0 z M 576,224 l 16,0 0,16 -16,0 z M 16,240 l 16,0 0,16 -16,0 z M 80,240 l 16,0 0,16 -16,0 z M 112,240 l 16,0 0,16 -16,0 z M 160,240 l 16,0 0,16 -16,0 z M 176,240 l 16,0 0,16 -16,0 z M 192,240 l 16,0 0,16 -16,0 z M 224,240 l 16,0 0,16 -16,0 z M 240,240 l 16,0 0,16 -16,0 z M 256,240 l 16,0 0,16 -16,0 z M 304,240 l 16,0 0,16 -16,0 z M 336,240 l 16,0 0,16 -16,0 z M 352,240 l 16,0 0,16 -16,0 z M 400,240 l 16,0 0,16 -16,0 z M 416,240 l 16,0 0,16 -16,0 z M 432,240 l 16,0 0,16 -16,0 z M 448,240 l 16,0 0,16 -16,0 z M 496,240 l 16,0 0,16 -16,0 z M 512,240 l 16,0 0,16 -16,0 z M 528,240 l 16,0 0,16 -16,0 z M 544,240 l 16,0 0,16 -16,0 z M 560,240 l 16,0 0,16 -16,0 z M 576,240 l 16,0 0,16 -16,0 z M 592,240 l 16,0 0,16 -16,0 z M 32,256 l 16,0 0,16 -16,0 z M 48,256 l 16,0 0,16 -16,0 z M 144,256 l 16,0 0,16 -16,0 z M 192,256 l 16,0 0,16 -16,0 z M 208,256 l 16,0 0,16 -16,0 z M 224,256 l 16,0 0,16 -16,0 z M 256,256 l 16,0 0,16 -16,0 z M 272,256 l 16,0 0,16 -16,0 z M 288,256 l 16,0 0,16 -16,0 z M 304,256 l 16,0 0,16 -16,0 z M 336,256 l 16,0 0,16 -16,0 z M 352,256 l 16,0 0,16 -16,0 z M 368,256 l 16,0 0,16 -16,0 z M 384,256 l 16,0 0,16 -16,0 z M 400,256 l 16,0 0,16 -16,0 z M 448,256 l 16,0 0,16 -16,0 z M 496,256 l 16,0 0,16 -16,0 z M 512,256 l 16,0 0,16 -16,0 z M 528,256 l 16,0 0,16 -16,0 z M 576,256 l 16,0 0,16 -16,0 z M 16,272 l 16,0 0,16 -16,0 z M 32,272 l 16,0 0,16 -16,0 z M 96,272 l 16,0 0,16 -16,0 z M 112,272 l 16,0 0,16 -16,0 z M 128,272 l 16,0 0,16 -16,0 z M 144,272 l 16,0 0,16 -16,0 z M 176,272 l 16,0 0,16 -16,0 z M 272,272 l 16,0 0,16 -16,0 z M 336,272 l 16,0 0,16 -16,0 z M 352,272 l 16,0 0,16 -16,0 z M 400,272 l 16,0 0,16 -16,0 z M 432,272 l 16,0 0,16 -16,0 z M 464,272 l 16,0 0,16 -16,0 z M 496,272 l 16,0 0,16 -16,0 z M 528,272 l 16,0 0,16 -16,0 z M 544,272 l 16,0 0,16 -16,0 z M 560,272 l 16,0 0,16 -16,0 z M 576,272 l 16,0 0,16 -16,0 z M 32,288 l 16,0 0,16 -16,0 z M 48,288 l 16,0 0,16 -16,0 z M 64,288 l 16,0 0,16 -16,0 z M 128,288 l 16,0 0,16 -16,0 z M 160,288 l 16,0 0,16 -16,0 z M 176,288 l 16,0 0,16 -16,0 z M 192,288 l 16,0 0,16 -16,0 z M 256,288 l 16,0 0,16 -16,0 z M 288,288 l 16,0 0,16 -16,0 z M 304,288 l 16,0 0,16 -16,0 z M 336,288 l 16,0 0,16 -16,0 z M 352,288 l 16,0 0,16 -16,0 z M 416,288 l 16,0 0,16 -16,0 z M 448,288 l 16,0 0,16 -16,0 z M 464,288 l 16,0 0,16 -16,0 z M 480,288 l 16,0 0,16 -16,0 z M 512,288 l 16,0 0,16 -16,0 z M 544,288 l 16,0 0,16 -16,0 z M 560,288 l 16,0 0,16 -16,0 z M 16,304 l 16,0 0,16 -16,0 z M 48,304 l 16,0 0,16 -16,0 z M 64,304 l 16,0 0,16 -16,0 z M 80,304 l 16,0 0,16 -16,0 z M 112,304 l 16,0 0,16 -16,0 z M 144,304 l 16,0 0,16 -16,0 z M 160,304 l 16,0 0,16 -16,0 z M 176,304 l 16,0 0,16 -16,0 z M 208,304 l 16,0 0,16 -16,0 z M 240,304 l 16,0 0,16 -16,0 z M 272,304 l 16,0 0,16 -16,0 z M 288,304 l 16,0 0,16 -16,0 z M 320,304 l 16,0 0,16 -16,0 z M 352,304 l 16,0 0,16 -16,0 z M 368,304 l 16,0 0,16 -16,0 z M 416,304 l 16,0 0,16 -16,0 z M 432,304 l 16,0 0,16 -16,0 z M 480,304 l 16,0 0,16 -16,0 z M 528,304 l 16,0 0,16 -16,0 z M 576,304 l 16,0 0,16 -16,0 z M 592,304 l 16,0 0,16 -16,0 z M 48,320 l 16,0 0,16 -16,0 z M 144,320 l 16,0 0,16 -16,0 z M 160,320 l 16,0 0,16 -16,0 z M 176,320 l 16,0 0,16 -16,0 z M 192,320 l 16,0 0,16 -16,0 z M 208,320 l 16,0 0,16 -16,0 z M 224,320 l 16,0 0,16 -16,0 z M 240,320 l 16,0 0,16 -16,0 z M 256,320 l 16,0 0,16 -16,0 z M 272,320 l 16,0 0,16 -16,0 z M 336,320 l 16,0 0,16 -16,0 z M 352,320 l 16,0 0,16 -16,0 z M 400,320 l 16,0 0,16 -16,0 z M 448,320 l 16,0 0,16 -16,0 z M 464,320 l 16,0 0,16 -16,0 z M 544,320 l 16,0 0,16 -16,0 z M 576,320 l 16,0 0,16 -16,0 z M 32,336 l 16,0 0,16 -16,0 z M 48,336 l 16,0 0,16 -16,0 z M 64,336 l 16,0 0,16 -16,0 z M 96,336 l 16,0 0,16 -16,0 z M 112,336 l 16,0 0,16 -16,0 z M 240,336 l 16,0 0,16 -16,0 z M 288,336 l 16,0 0,16 -16,0 z M 320,336 l 16,0 0,16 -16,0 z M 368,336 l 16,0 0,16 -16,0 z M 384,336 l 16,0 0,16 -16,0 z M 400,336 l 16,0 0,16 -16,0 z M 416,336 l 16,0 0,16 -16,0 z M 432,336 l 16,0 0,16 -16,0 z M 496,336 l 16,0 0,16 -16,0 z M 528,336 l 16,0 0,16 -16,0 z M 544,336 l 16,0 0,16 -16,0 z M 560,336 l 16,0 0,16 -16,0 z M 576,336 l 16,0 0,16 -16,0 z M 592,336 l 16,0 0,16 -16,0 z M 32,352 l 16,0 0,16 -16,0 z M 64,352 l 16,0 0,16 -16,0 z M 80,352 l 16,0 0,16 -16,0 z M 96,352 l 16,0 0,16 -16,0 z M 144,352 l 16,0 0,16 -16,0 z M 176,352 l 16,0 0,16 -16,0 z M 272,352 l 16,0 0,16 -16,0 z M 288,352 l 16,0 0,16 -16,0 z M 304,352 l 16,0 0,16 -16,0 z M 320,352 l 16,0 0,16 -16,0 z M 336,352 l 16,0 0,16 -16,0 z M 384,352 l 16,0 0,16 -16,0 z M 416,352 l 16,0 0,16 -16,0 z M 464,352 l 16,0 0,16 -16,0 z M 480,352 l 16,0 0,16 -16,0 z M 544,352 l 16,0 0,16 -16,0 z M 32,368 l 16,0 0,16 -16,0 z M 64,368 l 16,0 0,16 -16,0 z M 80,368 l 16,0 0,16 -16,0 z M 96,368 l 16,0 0,16 -16,0 z M 112,368 l 16,0 0,16 -16,0 z M 128,368 l 16,0 0,16 -16,0 z M 176,368 l 16,0 0,16 -16,0 z M 192,368 l 16,0 0,16 -16,0 z M 224,368 l 16,0 0,16 -16,0 z M 256,368 l 16,0 0,16 -16,0 z M 272,368 l 16,0 0,16 -16,0 z M 288,368 l 16,0 0,16 -16,0 z M 336,368 l 16,0 0,16 -16,0 z M 352,368 l 16,0 0,16 -16,0 z M 368,368 l 16,0 0,16 -16,0 z M 432,368 l 16,0 0,16 -16,0 z M 448,368 l 16,0 0,16 -16,0 z M 464,368 l 16,0 0,16 -16,0 z M 496,368 l 16,0 0,16 -16,0 z M 528,368 l 16,0 0,16 -16,0 z M 560,368 l 16,0 0,16 -16,0 z M 576,368 l 16,0 0,16 -16,0 z M 592,368 l 16,0 0,16 -16,0 z M 16,384 l 16,0 0,16 -16,0 z M 32,384 l 16,0 0,16 -16,0 z M 64,384 l 16,0 0,16 -16,0 z M 96,384 l 16,0 0,16 -16,0 z M 128,384 l 16,0 0,16 -16,0 z M 144,384 l 16,0 0,16 -16,0 z M 160,384 l 16,0 0,16 -16,0 z M 240,384 l 16,0 0,16 -16,0 z M 256,384 l 16,0 0,16 -16,0 z M 304,384 l 16,0 0,16 -16,0 z M 320,384 l 16,0 0,16 -16,0 z M 336,384 l 16,0 0,16 -16,0 z M 352,384 l 16,0 0,16 -16,0 z M 368,384 l 16,0 0,16 -16,0 z M 400,384 l 16,0 0,16 -16,0 z M 448,384 l 16,0 0,16 -16,0 z M 464,384 l 16,0 0,16 -16,0 z M 480,384 l 16,0 0,16 -16,0 z M 496,384 l 16,0 0,16 -16,0 z M 528,384 l 16,0 0,16 -16,0 z M 32,400 l 16,0 0,16 -16,0 z M 48,400 l 16,0 0,16 -16,0 z M 64,400 l 16,0 0,16 -16,0 z M 80,400 l 16,0 0,16 -16,0 z M 96,400 l 16,0 0,16 -16,0 z M 112,400 l 16,0 0,16 -16,0 z M 144,400 l 16,0 0,16 -16,0 z M 224,400 l 16,0 0,16 -16,0 z M 256,400 l 16,0 0,16 -16,0 z M 304,400 l 16,0 0,16 -16,0 z M 352,400 l 16,0 0,16 -16,0 z M 384,400 l 16,0 0,16 -16,0 z M 432,400 l 16,0 0,16 -16,0 z M 464,400 l 16,0 0,16 -16,0 z M 480,400 l 16,0 0,16 -16,0 z M 496,400 l 16,0 0,16 -16,0 z M 528,400 l 16,0 0,16 -16,0 z M 544,400 l 16,0 0,16 -16,0 z M 560,400 l 16,0 0,16 -16,0 z M 592,400 l 16,0 0,16 -16,0 z M 16,416 l 16,0 0,16 -16,0 z M 80,416 l 16,0 0,16 -16,0 z M 96,416 l 16,0 0,16 -16,0 z M 144,416 l 16,0 0,16 -16,0 z M 176,416 l 16,0 0,16 -16,0 z M 208,416 l 16,0 0,16 -16,0 z M 256,416 l 16,0 0,16 -16,0 z M 272,416 l 16,0 0,16 -16,0 z M 288,416 l 16,0 0,16 -16,0 z M 304,416 l 16,0 0,16 -16,0 z M 352,416 l 16,0 0,16 -16,0 z M 400,416 l 16,0 0,16 -16,0 z M 416,416 l 16,0 0,16 -16,0 z M 512,416 l 16,0 0,16 -16,0 z M 560,416 l 16,0 0,16 -16,0 z M 576,416 l 16,0 0,16 -16,0 z M 16,432 l 16,0 0,16 -16,0 z M 48,432 l 16,0 0,16 -16,0 z M 64,432 l 16,0 0,16 -16,0 z M 80,432 l 16,0 0,16 -16,0 z M 96,432 l 16,0 0,16 -16,0 z M 112,432 l 16,0 0,16 -16,0 z M 128,432 l 16,0 0,16 -16,0 z M 144,432 l 16,0 0,16 -16,0 z M 160,432 l 16,0 0,16 -16,0 z M 176,432 l 16,0 0,16 -16,0 z M 192,432 l 16,0 0,16 -16,0 z M 224,432 l 16,0 0,16 -16,0 z M 256,432 l 16,0 0,16 -16,0 z M 272,432 l 16,0 0,16 -16,0 z M 288,432 l 16,0 0,16 -16,0 z M 304,432 l 16,0 0,16 -16,0 z M 336,432 l 16,0 0,16 -16,0 z M 352,432 l 16,0 0,16 -16,0 z M 368,432 l 16,0 0,16 -16,0 z M 384,432 l 16,0 0,16 -16,0 z M 432,432 l 16,0 0,16 -16,0 z M 464,432 l 16,0 0,16 -16,0 z M 576,432 l 16,0 0,16 -16,0 z M 592,432 l 16,0 0,16 -16,0 z M 16,448 l 16,0 0,16 -16,0 z M 48,448 l 16,0 0,16 -16,0 z M 64,448 l 16,0 0,16 -16,0 z M 96,448 l 16,0 0,16 -16,0 z M 160,448 l 16,0 0,16 -16,0 z M 208,448 l 16,0 0,16 -16,0 z M 256,448 l 16,0 0,16 -16,0 z M 272,448 l 16,0 0,16 -16,0 z M 352,448 l 16,0 0,16 -16,0 z M 368,448 l 16,0 0,16 -16,0 z M 432,448 l 16,0 0,16 -16,0 z M 448,448 l 16,0 0,16 -16,0 z M 496,448 l 16,0 0,16 -16,0 z M 512,448 l 16,0 0,16 -16,0 z M 576,448 l 16,0 0,16 -16,0 z M 16,464 l 16,0 0,16 -16,0 z M 80,464 l 16,0 0,16 -16,0 z M 112,464 l 16,0 0,16 -16,0 z M 128,464 l 16,0 0,16 -16,0 z M 160,464 l 16,0 0,16 -16,0 z M 208,464 l 16,0 0,16 -16,0 z M 240,464 l 16,0 0,16 -16,0 z M 288,464 l 16,0 0,16 -16,0 z M 304,464 l 16,0 0,16 -16,0 z M 320,464 l 16,0 0,16 -16,0 z M 336,464 l 16,0 0,16 -16,0 z M 368,464 l 16,0 0,16 -16,0 z M 384,464 l 16,0 0,16 -16,0 z M 400,464 l 16,0 0,16 -16,0 z M 416,464 l 16,0 0,16 -16,0 z M 432,464 l 16,0 0,16 -16,0 z M 448,464 l 16,0 0,16 -16,0 z M 464,464 l 16,0 0,16 -16,0 z M 480,464 l 16,0 0,16 -16,0 z M 496,464 l 16,0 0,16 -16,0 z M 512,464 l 16,0 0,16 -16,0 z M 528,464 l 16,0 0,16 -16,0 z M 544,464 l 16,0 0,16 -16,0 z M 560,464 l 16,0 0,16 -16,0 z M 592,464 l 16,0 0,16 -16,0 z M 144,480 l 16,0 0,16 -16,0 z M 176,480 l 16,0 0,16 -16,0 z M 192,480 l 16,0 0,16 -16,0 z M 240,480 l 16,0 0,16 -16,0 z M 272,480 l 16,0 0,16 -16,0 z M 288,480 l 16,0 0,16 -16,0 z M 304,480 l 16,0 0,16 -16,0 z M 320,480 l 16,0 0,16 -16,0 z M 336,480 l 16,0 0,16 -16,0 z M 368,480 l 16,0 0,16 -16,0 z M 384,480 l 16,0 0,16 -16,0 z M 416,480 l 16,0 0,16 -16,0 z M 432,480 l 16,0 0,16 -16,0 z M 448,480 l 16,0 0,16 -16,0 z M 464,480 l 16,0 0,16 -16,0 z M 528,480 l 16,0 0,16 -16,0 z M 544,480 l 16,0 0,16 -16,0 z M 576,480 l 16,0 0,16 -16,0 z M 16,496 l 16,0 0,16 -16,0 z M 32,496 l 16,0 0,16 -16,0 z M 48,496 l 16,0 0,16 -16,0 z M 64,496 l 16,0 0,16 -16,0 z M 80,496 l 16,0 0,16 -16,0 z M 96,496 l 16,0 0,16 -16,0 z M 112,496 l 16,0 0,16 -16,0 z M 208,496 l 16,0 0,16 -16,0 z M 224,496 l 16,0 0,16 -16,0 z M 240,496 l 16,0 0,16 -16,0 z M 256,496 l 16,0 0,16 -16,0 z M 272,496 l 16,0 0,16 -16,0 z M 336,496 l 16,0 0,16 -16,0 z M 352,496 l 16,0 0,16 -16,0 z M 368,496 l 16,0 0,16 -16,0 z M 416,496 l 16,0 0,16 -16,0 z M 464,496 l 16,0 0,16 -16,0 z M 496,496 l 16,0 0,16 -16,0 z M 528,496 l 16,0 0,16 -16,0 z M 576,496 l 16,0 0,16 -16,0 z M 592,496 l 16,0 0,16 -16,0 z M 16,512 l 16,0 0,16 -16,0 z M 112,512 l 16,0 0,16 -16,0 z M 144,512 l 16,0 0,16 -16,0 z M 192,512 l 16,0 0,16 -16,0 z M 208,512 l 16,0 0,16 -16,0 z M 224,512 l 16,0 0,16 -16,0 z M 320,512 l 16,0 0,16 -16,0 z M 336,512 l 16,0 0,16 -16,0 z M 384,512 l 16,0 0,16 -16,0 z M 432,512 l 16,0 0,16 -16,0 z M 448,512 l 16,0 0,16 -16,0 z M 464,512 l 16,0 0,16 -16,0 z M 528,512 l 16,0 0,16 -16,0 z M 576,512 l 16,0 0,16 -16,0 z M 592,512 l 16,0 0,16 -16,0 z M 16,528 l 16,0 0,16 -16,0 z M 48,528 l 16,0 0,16 -16,0 z M 64,528 l 16,0 0,16 -16,0 z M 80,528 l 16,0 0,16 -16,0 z M 112,528 l 16,0 0,16 -16,0 z M 144,528 l 16,0 0,16 -16,0 z M 160,528 l 16,0 0,16 -16,0 z M 256,528 l 16,0 0,16 -16,0 z M 320,528 l 16,0 0,16 -16,0 z M 336,528 l 16,0 0,16 -16,0 z M 352,528 l 16,0 0,16 -16,0 z M 400,528 l 16,0 0,16 -16,0 z M 432,528 l 16,0 0,16 -16,0 z M 448,528 l 16,0 0,16 -16,0 z M 464,528 l 16,0 0,16 -16,0 z M 480,528 l 16,0 0,16 -16,0 z M 496,528 l 16,0 0,16 -16,0 z M 512,528 l 16,0 0,16 -16,0 z M 528,528 l 16,0 0,16 -16,0 z M 544,528 l 16,0 0,16 -16,0 z M 560,528 l 16,0 0,16 -16,0 z M 576,528 l 16,0 0,16 -16,0 z M 16,544 l 16,0 0,16 -16,0 z M 48,544 l 16,0 0,16 -16,0 z M 64,544 l 16,0 0,16 -16,0 z M 80,544 l 16,0 0,16 -16,0 z M 112,544 l 16,0 0,16 -16,0 z M 144,544 l 16,0 0,16 -16,0 z M 176,544 l 16,0 0,16 -16,0 z M 192,544 l 16,0 0,16 -16,0 z M 256,544 l 16,0 0,16 -16,0 z M 288,544 l 16,0 0,16 -16,0 z M 336,544 l 16,0 0,16 -16,0 z M 352,544 l 16,0 0,16 -16,0 z M 400,544 l 16,0 0,16 -16,0 z M 448,544 l 16,0 0,16 -16,0 z M 464,544 l 16,0 0,16 -16,0 z M 480,544 l 16,0 0,16 -16,0 z M 496,544 l 16,0 0,16 -16,0 z M 512,544 l 16,0 0,16 -16,0 z M 528,544 l 16,0 0,16 -16,0 z M 576,544 l 16,0 0,16 -16,0 z M 16,560 l 16,0 0,16 -16,0 z M 48,560 l 16,0 0,16 -16,0 z M 64,560 l 16,0 0,16 -16,0 z M 80,560 l 16,0 0,16 -16,0 z M 112,560 l 16,0 0,16 -16,0 z M 144,560 l 16,0 0,16 -16,0 z M 160,560 l 16,0 0,16 -16,0 z M 176,560 l 16,0 0,16 -16,0 z M 192,560 l 16,0 0,16 -16,0 z M 208,560 l 16,0 0,16 -16,0 z M 224,560 l 16,0 0,16 -16,0 z M 272,560 l 16,0 0,16 -16,0 z M 288,560 l 16,0 0,16 -16,0 z M 336,560 l 16,0 0,16 -16,0 z M 368,560 l 16,0 0,16 -16,0 z M 432,560 l 16,0 0,16 -16,0 z M 464,560 l 16,0 0,16 -16,0 z M 544,560 l 16,0 0,16 -16,0 z M 592,560 l 16,0 0,16 -16,0 z M 16,576 l 16,0 0,16 -16,0 z M 112,576 l 16,0 0,16 -16,0 z M 160,576 l 16,0 0,16 -16,0 z M 176,576 l 16,0 0,16 -16,0 z M 192,576 l 16,0 0,16 -16,0 z M 208,576 l 16,0 0,16 -16,0 z M 224,576 l 16,0 0,16 -16,0 z M 240,576 l 16,0 0,16 -16,0 z M 256,576 l 16,0 0,16 -16,0 z M 320,576 l 16,0 0,16 -16,0 z M 352,576 l 16,0 0,16 -16,0 z M 480,576 l 16,0 0,16 -16,0 z M 544,576 l 16,0 0,16 -16,0 z M 592,576 l 16,0 0,16 -16,0 z M 16,592 l 16,0 0,16 -16,0 z M 32,592 l 16,0 0,16 -16,0 z M 48,592 l 16,0 0,16 -16,0 z M 64,592 l 16,0 0,16 -16,0 z M 80,592 l 16,0 0,16 -16,0 z M 96,592 l 16,0 0,16 -16,0 z M 112,592 l 16,0 0,16 -16,0 z M 144,592 l 16,0 0,16 -16,0 z M 160,592 l 16,0 0,16 -16,0 z M 192,592 l 16,0 0,16 -16,0 z M 208,592 l 16,0 0,16 -16,0 z M 240,592 l 16,0 0,16 -16,0 z M 288,592 l 16,0 0,16 -16,0 z M 320,592 l 16,0 0,16 -16,0 z M 384,592 l 16,0 0,16 -16,0 z M 400,592 l 16,0 0,16 -16,0 z M 416,592 l 16,0 0,16 -16,0 z M 432,592 l 16,0 0,16 -16,0 z M 448,592 l 16,0 0,16 -16,0 z M 496,592 l 16,0 0,16 -16,0 z M 512,592 l 16,0 0,16 -16,0 z M 528,592 l 16,0 0,16 -16,0 z M 560,592 l 16,0 0,16 -16,0 z M 576,592 l 16,0 0,16 -16,0 z M 592,592 l 16,0 0,16 -16,0 z " />
	</g>
</svg>
